<svg width="297" height="42" viewBox="0 0 297 42" fill="none" xmlns="http://www.w3.org/2000/svg">
<rect width="41" height="6" rx="2" fill="#DFEEFF"/>
<rect x="44" width="7" height="6" rx="2" fill="#C6E0FF"/>
<rect x="54" width="22" height="6" rx="2" fill="#C6E0FF"/>
<rect x="79" width="7" height="6" rx="2" fill="#DFEEFF"/>
<rect x="89" width="51" height="6" rx="2" fill="#C6E0FF"/>
<rect x="143" width="24" height="6" rx="2" fill="#C6E0FF"/>
<rect y="18" width="29" height="6" rx="2" fill="#C6E0FF"/>
<rect x="32" y="18" width="10" height="6" rx="2" fill="#DFEEFF"/>
<rect x="45" y="18" width="55" height="6" rx="2" fill="#DFEEFF"/>
<rect x="103" y="18" width="10" height="6" rx="2" fill="#C6E0FF"/>
<rect x="116" y="18" width="24" height="6" rx="2" fill="#C6E0FF"/>
<rect x="143" y="18" width="48" height="6" rx="2" fill="#DFEEFF"/>
<rect x="194" y="18" width="10" height="6" rx="2" fill="#C6E0FF"/>
<rect x="207" y="18" width="24" height="6" rx="2" fill="#C6E0FF"/>
<rect x="234" y="18" width="48" height="6" rx="2" fill="#DFEEFF"/>
<rect y="36" width="67" height="6" rx="2" fill="#DFEEFF"/>
<rect x="70" y="36" width="12" height="6" rx="2" fill="#C6E0FF"/>
<rect x="85" y="36" width="59" height="6" rx="2" fill="#DFEEFF"/>
<rect x="147" y="36" width="36" height="6" rx="2" fill="#C6E0FF"/>
<rect x="186" y="36" width="12" height="6" rx="2" fill="#DFEEFF"/>
<rect x="201" y="36" width="30" height="6" rx="2" fill="#C6E0FF"/>
</svg>
