<svg width="202" height="28" viewBox="0 0 202 28" fill="none" xmlns="http://www.w3.org/2000/svg">
<path fill-rule="evenodd" clip-rule="evenodd" d="M41 24.5722V5.60413H44.5874V24.5722H41ZM49.1428 15.1163L56.289 24.5722H51.7621L44.8721 15.1726L51.5059 5.60413H55.805L49.1428 15.1163ZM58.8799 24.5722V10.3039H62.2964V24.5722H58.8799ZM58.5383 6.02627C58.5383 5.46341 58.7375 4.98499 59.1361 4.59099C59.5347 4.197 60.0188 4 60.5882 4C61.1576 4 61.6416 4.197 62.0402 4.59099C62.4388 4.98499 62.6381 5.46341 62.6381 6.02627C62.6381 6.60788 62.4388 7.09568 62.0402 7.48968C61.6416 7.88368 61.1576 8.08068 60.5882 8.08068C60.0188 8.08068 59.5347 7.88368 59.1361 7.48968C58.7375 7.09568 58.5383 6.60788 58.5383 6.02627ZM70.2969 12.8368V20.0976C70.2969 20.698 70.4582 21.1529 70.7809 21.4625C71.1035 21.7721 71.5496 21.9268 72.119 21.9268C72.8403 21.9268 73.5046 21.7298 74.112 21.3358V24.2345C73.4477 24.5535 72.5935 24.713 71.5496 24.713C68.4367 24.713 66.8803 23.1558 66.8803 20.0413V12.8368H64.7165V10.3039H66.8803V6.87055H70.2969V10.3039H73.8842V12.8368H70.2969ZM85.6143 16.2702V15.848C85.5764 14.9287 85.3249 14.1923 84.8599 13.6388C84.3948 13.0854 83.7163 12.8086 82.8242 12.8086C82.008 12.8086 81.301 13.1041 80.7031 13.6951C80.1052 14.2861 79.7208 15.1445 79.55 16.2702H85.6143ZM87.949 20.8574V23.7843C86.943 24.4034 85.491 24.713 83.5929 24.713C81.2962 24.713 79.4836 24.0375 78.1549 22.6867C76.8262 21.3358 76.1619 19.591 76.1619 17.4522C76.1619 15.182 76.7883 13.3996 78.041 12.1051C79.2938 10.8105 80.8597 10.1632 82.7388 10.1632C84.6179 10.1632 86.1078 10.7261 87.2087 11.8518C88.3096 12.9775 88.8601 14.6191 88.8601 16.7767C88.8601 17.3021 88.7936 17.9775 88.6608 18.803H79.6069C79.8537 19.8349 80.3709 20.6229 81.1586 21.167C81.9463 21.7111 82.9286 21.9831 84.1054 21.9831C85.6238 21.9831 86.905 21.6079 87.949 20.8574ZM113.174 6.39212V9.85366C111.732 9.02814 110.138 8.61539 108.391 8.61539C106.645 8.61539 105.188 9.20169 104.021 10.3743C102.854 11.5469 102.27 13.1182 102.27 15.0882C102.27 17.0582 102.854 18.6248 104.021 19.788C105.188 20.9512 106.711 21.5328 108.591 21.5328C110.394 21.5328 111.931 21.0638 113.203 20.1257V23.6717C112.026 24.4222 110.375 24.7974 108.249 24.7974C105.402 24.7974 103.053 23.9109 101.202 22.1379C99.3517 20.3649 98.4264 18.015 98.4264 15.0882C98.4264 12.2176 99.3422 9.87712 101.174 8.06661C103.006 6.25609 105.364 5.35085 108.249 5.35085C110.356 5.35085 111.998 5.69793 113.174 6.39212ZM122.57 24.7974C120.387 24.7974 118.684 24.122 117.459 22.7711C116.235 21.4203 115.623 19.6942 115.623 17.5929C115.623 15.4165 116.259 13.6201 117.531 12.2036C118.802 10.7871 120.482 10.0788 122.57 10.0788C124.791 10.0788 126.508 10.7683 127.723 12.1473C128.938 13.5263 129.545 15.2758 129.545 17.3959C129.545 19.5535 128.933 21.3265 127.709 22.7148C126.485 24.1032 124.772 24.7974 122.57 24.7974ZM122.57 12.8368C121.488 12.8368 120.658 13.2777 120.079 14.1595C119.5 15.0413 119.21 16.1482 119.21 17.4803C119.21 18.7936 119.505 19.8912 120.093 20.773C120.681 21.6548 121.517 22.0957 122.598 22.0957C123.718 22.0957 124.563 21.6642 125.132 20.8011C125.702 19.9381 125.986 18.8405 125.986 17.5085C125.986 16.1388 125.711 15.0178 125.161 14.1454C124.61 13.273 123.747 12.8368 122.57 12.8368ZM135.894 10.3039V12.7524C136.711 11.0075 138.191 10.1351 140.336 10.1351C141.779 10.1351 142.917 10.5666 143.753 11.4296C144.588 12.2927 145.005 13.5122 145.005 15.0882V24.5722H141.589V15.7918C141.589 14.8537 141.361 14.1454 140.905 13.667C140.45 13.1886 139.833 12.9493 139.055 12.9493C138.163 12.9493 137.413 13.2917 136.806 13.9766C136.198 14.6614 135.894 15.6417 135.894 16.9175V24.5722H132.478V10.3039H135.894ZM151.981 10.3039V12.7524C152.797 11.0075 154.277 10.1351 156.422 10.1351C157.865 10.1351 159.004 10.5666 159.839 11.4296C160.674 12.2927 161.091 13.5122 161.091 15.0882V24.5722H157.675V15.7918C157.675 14.8537 157.447 14.1454 156.992 13.667C156.536 13.1886 155.919 12.9493 155.141 12.9493C154.249 12.9493 153.499 13.2917 152.892 13.9766C152.284 14.6614 151.981 15.6417 151.981 16.9175V24.5722H148.564V10.3039H151.981ZM173.334 16.2702V15.848C173.296 14.9287 173.045 14.1923 172.58 13.6388C172.115 13.0854 171.436 12.8086 170.544 12.8086C169.728 12.8086 169.021 13.1041 168.423 13.6951C167.825 14.2861 167.441 15.1445 167.27 16.2702H173.334ZM175.669 20.8574V23.7843C174.663 24.4034 173.211 24.713 171.313 24.713C169.016 24.713 167.203 24.0375 165.875 22.6867C164.546 21.3358 163.882 19.591 163.882 17.4522C163.882 15.182 164.508 13.3996 165.761 12.1051C167.013 10.8105 168.579 10.1632 170.458 10.1632C172.338 10.1632 173.828 10.7261 174.928 11.8518C176.029 12.9775 176.58 14.6191 176.58 16.7767C176.58 17.3021 176.513 17.9775 176.38 18.803H167.327C167.573 19.8349 168.091 20.6229 168.878 21.167C169.666 21.7111 170.648 21.9831 171.825 21.9831C173.344 21.9831 174.625 21.6079 175.669 20.8574ZM182.445 17.4803C182.483 18.8312 182.896 19.9193 183.683 20.7449C184.471 21.5704 185.539 21.9831 186.886 21.9831C188.063 21.9831 189.155 21.6642 190.161 21.0263V23.9531C189.155 24.5347 187.902 24.8255 186.402 24.8255C184.182 24.8255 182.383 24.1314 181.007 22.743C179.631 21.3546 178.943 19.6004 178.943 17.4803C178.962 15.3977 179.65 13.6435 181.007 12.2176C182.364 10.7917 184.22 10.0788 186.573 10.0788C187.978 10.0788 189.174 10.3415 190.161 10.8668V13.8499C189.212 13.2495 188.13 12.9493 186.915 12.9493C185.586 12.9493 184.514 13.3621 183.698 14.1876C182.881 15.0131 182.464 16.1107 182.445 17.4803ZM197.25 12.8368V20.0976C197.25 20.698 197.411 21.1529 197.734 21.4625C198.057 21.7721 198.503 21.9268 199.072 21.9268C199.793 21.9268 200.458 21.7298 201.065 21.3358V24.2345C200.401 24.5535 199.547 24.713 198.503 24.713C195.39 24.713 193.833 23.1558 193.833 20.0413V12.8368H191.67V10.3039H193.833V6.87055H197.25V10.3039H200.837V12.8368H197.25Z" fill="#222222"/>
<path d="M21.8226 14H0L11.1774 0H33L21.8226 14Z" fill="#F33D2C"/>
<path d="M11.1774 28H33L21.8226 14H0L11.1774 28Z" fill="#C81E16"/>
</svg>
